<?xml version="1.0" encoding="UTF-8" standalone="no"?>
<svg
   width="543"
   height="631"
   viewBox="0 0 543 631"
   fill="none"
   version="1.1"
   id="svg8"
   sodipodi:docname="logo.svg"
   inkscape:version="1.3.2 (091e20ef0f, 2023-11-25, custom)"
   xmlns:inkscape="http://www.inkscape.org/namespaces/inkscape"
   xmlns:sodipodi="http://sodipodi.sourceforge.net/DTD/sodipodi-0.dtd"
   xmlns="http://www.w3.org/2000/svg"
   xmlns:svg="http://www.w3.org/2000/svg">
  <defs
     id="defs8" />
  <sodipodi:namedview
     id="namedview8"
     pagecolor="#ffffff"
     bordercolor="#666666"
     borderopacity="1.0"
     inkscape:showpageshadow="2"
     inkscape:pageopacity="0.0"
     inkscape:pagecheckerboard="0"
     inkscape:deskcolor="#d1d1d1"
     inkscape:zoom="1.385103"
     inkscape:cx="227.78089"
     inkscape:cy="350.87643"
     inkscape:window-width="1896"
     inkscape:window-height="1000"
     inkscape:window-x="0"
     inkscape:window-y="0"
     inkscape:window-maximized="1"
     inkscape:current-layer="svg8" />
  <path
     id="path1"
     style="color:#000000;fill:#ffffff;-inkscape-stroke:none"
     d="m 268.07812,0 c -32.89398,0 -59.99999,27.106011 -60,60 0,25.89546 16.80314,48.19323 40,56.51367 v 99.02149 c -29.55869,3.24122 -57.50086,13.35907 -82.06835,28.90625 l -17.93165,-18.11914 v -36.8086 c 23.19687,-8.32044 40,-30.61821 40,-56.51367 0,-32.89399 -27.106,-60 -60,-60 -32.893979,0 -59.999995,27.10601 -59.999995,60 0,25.89546 16.803139,48.19323 39.999995,56.51367 v 45.03321 8.22265 l 5.78516,5.84375 20.47266,20.68945 c -26.03981,25.05669 -45.635399,57.4011 -55.406252,94.36329 -4.381463,1.06149 -8.633148,2.2529 -12.636719,3.65625 -40.912696,14.34084 -62.0507815,44.14257 -62.0507815,44.14257 -6.3713016,9.0222 -4.22285546,21.50102 4.7988281,27.87305 9.0225564,6.37263 21.5028694,4.22408 27.8750004,-4.79883 0,0 13.519011,-19.2719 42.609375,-29.46875 29.090359,-10.19685 73.478329,-12.05991 140.345699,34.36133 75.555,52.45258 147.69972,50.27318 201.04102,26.23438 53.34129,-24.03882 88.63963,-66.0743 103.26367,-97.1504 4.7026,-9.994 0.41357,-21.90797 -9.58008,-26.61132 -3.17664,-1.49508 -6.69087,-2.12761 -10.18945,-1.83399 -7.12052,0.59757 -13.3813,4.94863 -16.42383,11.41407 -4.36482,9.27523 -13.55503,22.58726 -26.38867,36.10742 -5.42481,-41.68865 -23.51239,-79.7446 -50.45898,-109.52149 l 28.16015,-28.45703 5.7832,-5.84375 v -8.22265 -41.03321 c 23.19687,-8.32044 40.00001,-30.61821 40,-56.51367 0,-32.89399 -27.106,-60 -60,-60 -32.89398,0 -60,27.10601 -60,60 0,25.89546 16.80314,48.19323 40,56.51367 v 32.81055 l -23.65429,23.9043 c -26.21629,-19.16591 -57.41008,-31.89094 -91.60742,-35.68164 -0.58096,-0.0644 -1.15789,-0.0914 -1.73829,-0.1504 v -98.88281 c 23.19687,-8.32044 40.00001,-30.61821 40,-56.51367 0,-32.893989 -27.106,-60 -60,-60 z m 0,40 c 11.42593,0 20,8.574078 20,20 0,11.425922 -8.57407,20 -20,20 -11.42591,0 -19.99999,-8.574078 -20,-20 0,-11.425922 8.57409,-20 20,-20 z m -140,73 c 11.42593,0 20,8.57408 20,20 0,11.42592 -8.57407,20 -20,20 -11.42591,0 -20,-8.57408 -20,-20 0,-11.42592 8.57409,-20 20,-20 z m 297,5 c 11.42593,0 20,8.57408 20,20 0,11.42592 -8.57407,20 -20,20 -11.42591,0 -19.99999,-8.57408 -20,-20 0,-11.42592 8.57409,-20 20,-20 z M 285.4082,255.30469 c 76.02972,8.42772 133.52231,72.45037 137.52539,150.12695 -17.86171,12.87949 -39.06193,22.76188 -62.38086,25.875 -29.13796,3.88851 -63.99202,-1.67513 -106.46679,-31.16211 C 206.58935,367.17081 163.47245,352.61936 125.97656,349.99414 159.58658,272.96078 234.53998,249.6658 285.4082,255.30469 Z m 239.07227,189.83984 c -1.73515,-0.20997 -3.49033,-0.19158 -5.2207,0.0547 -7.07412,1.00712 -13.07356,5.71181 -15.73829,12.3418 -2.97786,7.40836 -13.61257,21.65726 -29.89257,34.89453 -16.28002,13.23725 -37.9923,26.09323 -62.64844,34.83984 -49.31229,17.49322 -109.12219,19.41426 -168.48242,-20.82812 -74.82261,-50.72506 -133.02286,-52.857 -171.5293,-38.38282 -38.506441,14.47419 -56.595703,44.74024 -56.595703,44.74024 -5.6314393,9.50261 -2.493025,21.7712 7.009765,27.40234 9.502104,5.63178 21.770539,2.49428 27.402344,-7.00781 0,0 10.530832,-18.02285 36.257813,-27.69336 25.726971,-9.67051 67.372651,-11.80296 135.009761,34.05078 70.44251,47.75544 145.78753,46.17517 204.30079,25.41797 29.25662,-10.3786 54.62412,-25.33491 74.50976,-41.50391 19.88564,-16.16899 34.50133,-32.92012 41.77344,-51.01172 4.11926,-10.24855 -0.84926,-21.89598 -11.09766,-26.01562 -1.62218,-0.65219 -3.32287,-1.08886 -5.05859,-1.29883 z"
     sodipodi:nodetypes="sscccccsssccccccscscscscsssccccccssscccsccsssssssssssssssssccccccsccsscscccscsscss" />
</svg>
